<?xml version="1.0" encoding="UTF-8" standalone="no"?>
<svg width="72px" height="72px" viewBox="0 0 72 72" version="1.1" xmlns="http://www.w3.org/2000/svg" xmlns:xlink="http://www.w3.org/1999/xlink">
    <!-- Generator: Sketch 45.2 (43514) - http://www.bohemiancoding.com/sketch -->
    <title>Deine Testpaket</title>
    <desc>Created with Sketch.</desc>
    <defs></defs>
    <g id="Symbols" stroke="none" stroke-width="1" fill="none" fill-rule="evenodd">
        <g id="Deine-Testpaket" stroke-width="2">
            <g id="Page-1" transform="translate(18.000000, 18.700001)" stroke="#1D1D1B" stroke-linecap="round" stroke-linejoin="round">
                <path d="M13.5,15.163575 L1.85742857,15.163575 C1.18971429,15.163575 0.642857143,14.621275 0.642857143,13.959125 L0.642857143,7.975125 C0.642857143,7.312125 1.18971429,6.769825 1.85742857,6.769825 L34.5711429,6.769825 C35.2388571,6.769825 35.7857143,7.312125 35.7857143,7.975125 L35.7857143,13.959125 C35.7857143,14.621275 35.2388571,15.163575 34.5711429,15.163575 L22.6071429,15.163575" id="Stroke-1"></path>
                <path d="M13.5,15.163575 L4.42885714,15.163575 C3.76114286,15.163575 3.21428571,15.705875 3.21428571,16.368025 L3.21428571,32.093025 C3.21428571,32.755175 3.76114286,33.296625 4.42885714,33.296625 L31.9997143,33.296625 C32.6674286,33.296625 33.2142857,32.755175 33.2142857,32.093025 L33.2142857,16.368025 C33.2142857,15.705875 32.6674286,15.163575 31.9997143,15.163575 L22.6071429,15.163575" id="Stroke-3"></path>
                <path d="M22.5,6.77025 L22.5,33.29705" id="Stroke-5"></path>
                <path d="M13.5,33.29705 L13.5,6.77025" id="Stroke-7"></path>
                <path d="M18.5884286,6.63204 C18.231,5.64519 23.4998571,-1.87136 27.5164286,1.50229 C29.115,2.93624 28.6598571,6.44249 25.7935714,6.63714 C24.7761429,6.65584 19.7404286,6.61929 18.5884286,6.63204 Z" id="Stroke-9"></path>
                <path d="M17.805,6.63204 C18.1624286,5.64519 12.8935714,-1.87136 8.877,1.50229 C7.27842857,2.93624 7.73357143,6.44249 10.5998571,6.63714 C11.6172857,6.65584 16.653,6.61929 17.805,6.63204 Z" id="Stroke-11"></path>
            </g>
            <path d="M36,71 C49.1247415,71 60.9575636,63.7130173 66.9743781,52.3124409 C69.6055559,47.3269217 71,41.7649675 71,36 C71,16.6700338 55.3299662,1 36,1 C16.6700338,1 1,16.6700338 1,36 C1,55.3299662 16.6700338,71 36,71 Z" id="Oval-2-Copy-13" stroke="#000000"></path>
        </g>
    </g>
</svg>